<svg width="19" height="10" viewBox="0 0 19 10" fill="none" xmlns="http://www.w3.org/2000/svg">
<path d="M18.9622 9.75195L10.1476 0.257812C9.82765 -0.0859375 9.17269 -0.0859375 8.8552 0.257812L0.0381539 9.75195C0.0164559 9.7753 0.00345771 9.80289 0.000599766 9.83166C-0.00225818 9.86043 0.00513591 9.88925 0.0219625 9.91494C0.0387891 9.94062 0.0643908 9.96217 0.0959299 9.97718C0.127469 9.9922 0.163713 10.0001 0.200646 10H2.07555C2.20304 10 2.32304 9.95117 2.39803 9.87109L9.50017 2.22266L16.6023 9.87109C16.6773 9.95117 16.7973 10 16.9248 10H18.7997C18.9622 10 19.0572 9.85547 18.9622 9.75195Z" fill="#535256"/>
</svg>
